<svg width="20" height="20" viewBox="0 0 20 20" fill="none" xmlns="http://www.w3.org/2000/svg">
<g clip-path="url(#clip0_30021_54)">
<path d="M16.6668 18.3334H15.0002V16.6667C15.0002 16.0037 14.7368 15.3678 14.2679 14.8989C13.7991 14.4301 13.1632 14.1667 12.5002 14.1667H7.50016C6.83712 14.1667 6.20124 14.4301 5.7324 14.8989C5.26355 15.3678 5.00016 16.0037 5.00016 16.6667V18.3334H3.3335V16.6667C3.3335 15.5616 3.77248 14.5018 4.55388 13.7204C5.33529 12.939 6.39509 12.5 7.50016 12.5H12.5002C13.6052 12.5 14.665 12.939 15.4464 13.7204C16.2278 14.5018 16.6668 15.5616 16.6668 16.6667V18.3334ZM10.0002 10.8334C9.34355 10.8334 8.69337 10.704 8.08675 10.4528C7.48012 10.2015 6.92892 9.8332 6.46463 9.36891C6.00034 8.90461 5.63204 8.35342 5.38076 7.74679C5.12949 7.14016 5.00016 6.48998 5.00016 5.83337C5.00016 5.17676 5.12949 4.52658 5.38076 3.91996C5.63204 3.31333 6.00034 2.76213 6.46463 2.29784C6.92892 1.83355 7.48012 1.46525 8.08675 1.21398C8.69337 0.962703 9.34355 0.833374 10.0002 0.833374C11.3262 0.833374 12.598 1.36016 13.5357 2.29784C14.4734 3.23552 15.0002 4.50729 15.0002 5.83337C15.0002 7.15946 14.4734 8.43123 13.5357 9.36891C12.598 10.3066 11.3262 10.8334 10.0002 10.8334ZM10.0002 9.16671C10.8842 9.16671 11.7321 8.81552 12.3572 8.1904C12.9823 7.56528 13.3335 6.71743 13.3335 5.83337C13.3335 4.94932 12.9823 4.10147 12.3572 3.47635C11.7321 2.85123 10.8842 2.50004 10.0002 2.50004C9.11611 2.50004 8.26826 2.85123 7.64314 3.47635C7.01802 4.10147 6.66683 4.94932 6.66683 5.83337C6.66683 6.71743 7.01802 7.56528 7.64314 8.1904C8.26826 8.81552 9.11611 9.16671 10.0002 9.16671Z" fill="#6D787E"/>
</g>
<defs>
<clipPath id="clip0_30021_54">
<rect width="20" height="20" fill="white"/>
</clipPath>
</defs>
</svg>
